<svg width="129" height="33" viewBox="0 0 129 33" fill="none" xmlns="http://www.w3.org/2000/svg">
<path d="M10.376 20.432C8.968 19.952 7.688 19.472 6.536 18.992C5.384 18.48 4.392 17.872 3.56 17.168C2.728 16.464 2.072 15.632 1.592 14.672C1.144 13.68 0.92 12.48 0.92 11.072C0.92 8.352 1.96 6.176 4.04 4.544C6.152 2.912 9.096 2.096 12.872 2.096C14.248 2.096 15.528 2.192 16.712 2.384C17.896 2.576 18.904 2.88 19.736 3.296C20.6 3.68 21.272 4.192 21.752 4.832C22.232 5.44 22.472 6.16 22.472 6.992C22.472 7.824 22.28 8.544 21.896 9.152C21.512 9.728 21.048 10.224 20.504 10.64C19.8 10.192 18.856 9.808 17.672 9.488C16.488 9.136 15.192 8.96 13.784 8.96C12.344 8.96 11.288 9.168 10.616 9.584C9.944 9.968 9.608 10.464 9.608 11.072C9.608 11.552 9.816 11.952 10.232 12.272C10.648 12.56 11.272 12.832 12.104 13.088L14.648 13.904C17.656 14.864 19.96 16.096 21.56 17.6C23.192 19.072 24.008 21.088 24.008 23.648C24.008 26.368 22.936 28.576 20.792 30.272C18.648 31.936 15.496 32.768 11.336 32.768C9.864 32.768 8.488 32.64 7.208 32.384C5.96 32.16 4.856 31.824 3.896 31.376C2.968 30.896 2.232 30.32 1.688 29.648C1.176 28.944 0.92 28.144 0.92 27.248C0.92 26.32 1.192 25.536 1.736 24.896C2.28 24.224 2.872 23.712 3.512 23.36C4.408 24.064 5.496 24.672 6.776 25.184C8.088 25.696 9.512 25.952 11.048 25.952C12.616 25.952 13.72 25.712 14.36 25.232C15 24.752 15.32 24.192 15.32 23.552C15.32 22.912 15.064 22.432 14.552 22.112C14.04 21.76 13.32 21.424 12.392 21.104L10.376 20.432ZM40.3633 32.768C38.4753 32.768 36.7153 32.512 35.0833 32C33.4833 31.456 32.0753 30.656 30.8593 29.6C29.6753 28.544 28.7313 27.216 28.0273 25.616C27.3553 24.016 27.0193 22.144 27.0193 20C27.0193 17.888 27.3553 16.08 28.0273 14.576C28.7313 13.04 29.6433 11.792 30.7633 10.832C31.8833 9.84 33.1633 9.12 34.6033 8.672C36.0433 8.192 37.5153 7.952 39.0193 7.952C40.7153 7.952 42.2513 8.208 43.6273 8.72C45.0353 9.232 46.2353 9.936 47.2273 10.832C48.2513 11.728 49.0353 12.8 49.5793 14.048C50.1553 15.296 50.4433 16.656 50.4433 18.128C50.4433 19.216 50.1393 20.048 49.5312 20.624C48.9233 21.2 48.0753 21.568 46.9873 21.728L35.1313 23.504C35.4833 24.56 36.2033 25.36 37.2913 25.904C38.3793 26.416 39.6273 26.672 41.0353 26.672C42.3473 26.672 43.5793 26.512 44.7313 26.192C45.9153 25.84 46.8753 25.44 47.6113 24.992C48.1233 25.312 48.5553 25.76 48.9073 26.336C49.2593 26.912 49.4353 27.52 49.4353 28.16C49.4353 29.6 48.7633 30.672 47.4193 31.376C46.3953 31.92 45.2433 32.288 43.9633 32.48C42.6833 32.672 41.4833 32.768 40.3633 32.768ZM39.0193 13.904C38.2513 13.904 37.5793 14.032 37.0033 14.288C36.4593 14.544 36.0113 14.88 35.6593 15.296C35.3073 15.68 35.0353 16.128 34.8433 16.64C34.6833 17.12 34.5873 17.616 34.5553 18.128L42.7633 16.784C42.6673 16.144 42.3153 15.504 41.7073 14.864C41.0993 14.224 40.2033 13.904 39.0193 13.904ZM66.707 32.768C64.819 32.768 63.059 32.512 61.427 32C59.827 31.456 58.419 30.656 57.203 29.6C56.019 28.544 55.075 27.216 54.371 25.616C53.699 24.016 53.363 22.144 53.363 20C53.363 17.888 53.699 16.08 54.371 14.576C55.075 13.04 55.987 11.792 57.107 10.832C58.227 9.84 59.507 9.12 60.947 8.672C62.387 8.192 63.859 7.952 65.363 7.952C67.059 7.952 68.595 8.208 69.971 8.72C71.379 9.232 72.579 9.936 73.571 10.832C74.595 11.728 75.379 12.8 75.923 14.048C76.499 15.296 76.787 16.656 76.787 18.128C76.787 19.216 76.483 20.048 75.875 20.624C75.267 21.2 74.419 21.568 73.331 21.728L61.475 23.504C61.827 24.56 62.547 25.36 63.635 25.904C64.723 26.416 65.971 26.672 67.379 26.672C68.691 26.672 69.923 26.512 71.075 26.192C72.259 25.84 73.219 25.44 73.955 24.992C74.467 25.312 74.899 25.76 75.251 26.336C75.603 26.912 75.779 27.52 75.779 28.16C75.779 29.6 75.107 30.672 73.763 31.376C72.739 31.92 71.587 32.288 70.307 32.48C69.027 32.672 67.827 32.768 66.707 32.768ZM65.363 13.904C64.595 13.904 63.923 14.032 63.347 14.288C62.803 14.544 62.355 14.88 62.003 15.296C61.651 15.68 61.379 16.128 61.187 16.64C61.027 17.12 60.931 17.616 60.899 18.128L69.107 16.784C69.011 16.144 68.659 15.504 68.051 14.864C67.443 14.224 66.547 13.904 65.363 13.904ZM79.7068 20.336C79.7068 18.224 80.0268 16.4 80.6668 14.864C81.3068 13.296 82.1868 12 83.3068 10.976C84.4588 9.952 85.7868 9.2 87.2908 8.72C88.8268 8.208 90.4748 7.952 92.2348 7.952C92.8748 7.952 93.4988 8.016 94.1068 8.144C94.7148 8.24 95.2108 8.368 95.5948 8.528V0.751999C95.9148 0.655998 96.4268 0.559999 97.1308 0.464C97.8348 0.335999 98.5548 0.271999 99.2908 0.271999C99.9948 0.271999 100.619 0.319999 101.163 0.415998C101.739 0.511998 102.219 0.703999 102.603 0.991999C102.987 1.28 103.275 1.68 103.467 2.192C103.659 2.672 103.755 3.312 103.755 4.112V26.864C103.755 28.368 103.051 29.568 101.643 30.464C100.715 31.072 99.5148 31.6 98.0428 32.048C96.5708 32.528 94.8748 32.768 92.9548 32.768C90.8748 32.768 89.0028 32.48 87.3388 31.904C85.7068 31.328 84.3148 30.496 83.1628 29.408C82.0428 28.32 81.1788 27.024 80.5708 25.52C79.9948 23.984 79.7068 22.256 79.7068 20.336ZM93.3388 14.336C91.6108 14.336 90.2828 14.832 89.3548 15.824C88.4268 16.816 87.9628 18.32 87.9628 20.336C87.9628 22.32 88.3948 23.824 89.2588 24.848C90.1228 25.84 91.3708 26.336 93.0028 26.336C93.5788 26.336 94.0908 26.256 94.5388 26.096C95.0188 25.904 95.3868 25.696 95.6428 25.472V14.912C95.0028 14.528 94.2348 14.336 93.3388 14.336ZM128.52 25.04C128.52 27.472 127.608 29.376 125.784 30.752C123.96 32.128 121.272 32.816 117.72 32.816C116.376 32.816 115.128 32.72 113.976 32.528C112.824 32.336 111.832 32.048 111 31.664C110.2 31.248 109.56 30.736 109.08 30.128C108.632 29.52 108.408 28.8 108.408 27.968C108.408 27.2 108.568 26.56 108.888 26.048C109.208 25.504 109.592 25.056 110.04 24.704C110.968 25.216 112.024 25.68 113.208 26.096C114.424 26.48 115.816 26.672 117.384 26.672C118.376 26.672 119.128 26.528 119.64 26.24C120.184 25.952 120.456 25.568 120.456 25.088C120.456 24.64 120.264 24.288 119.88 24.032C119.496 23.776 118.856 23.568 117.96 23.408L116.52 23.12C113.736 22.576 111.656 21.728 110.28 20.576C108.936 19.392 108.264 17.712 108.264 15.536C108.264 14.352 108.52 13.28 109.032 12.32C109.544 11.36 110.264 10.56 111.192 9.92C112.12 9.28 113.224 8.784 114.504 8.432C115.816 8.08 117.256 7.904 118.824 7.904C120.008 7.904 121.112 8 122.136 8.192C123.192 8.352 124.104 8.608 124.872 8.96C125.64 9.312 126.248 9.776 126.696 10.352C127.144 10.896 127.368 11.552 127.368 12.32C127.368 13.056 127.224 13.696 126.936 14.24C126.68 14.752 126.344 15.184 125.928 15.536C125.672 15.376 125.288 15.216 124.776 15.056C124.264 14.864 123.704 14.704 123.096 14.576C122.488 14.416 121.864 14.288 121.224 14.192C120.616 14.096 120.056 14.048 119.544 14.048C118.488 14.048 117.672 14.176 117.096 14.432C116.52 14.656 116.232 15.024 116.232 15.536C116.232 15.888 116.392 16.176 116.712 16.4C117.032 16.624 117.64 16.832 118.536 17.024L120.024 17.36C123.096 18.064 125.272 19.04 126.552 20.288C127.864 21.504 128.52 23.088 128.52 25.04Z" fill="white"/>
</svg>
